<svg id="Layer_1" data-name="Layer 1" xmlns="http://www.w3.org/2000/svg" viewBox="0 0 1269.51 255.08"><defs><style>.cls-1{fill:#473192}</style></defs><path class="cls-1" d="M656.92 231.42v10.94l20.46 11h-41.14V139.67h22.09c.08.35.14.71.23 1.06 11.74 47.24 52.15 58.79 52.15 58.79v-59.85h20.68v113.7h-22.1c-.08-.35-.14-.71-.23-1.06-11.74-47.24-52.15-58.79-52.15-58.79v26.88l20.46 11h-20.46"/><path class="cls-1" d="M656.92 231.27v10.94l20.46 11h-41.14V139.53h22.09c.08.35.14.71.23 1.06 11.74 47.24 52.15 58.79 52.15 58.79v-59.85h20.68v113.7h-22.1c-.08-.35-.14-.71-.23-1.06-11.74-47.24-52.15-58.79-52.15-58.79v26.88l20.46 11h-20.46M259.45 74.26v39.44h-23.52V0h46.3c24.07 0 40 13 40 37.22 0 24.08-15.93 37-40 37h-22.78zm21.3-54.07h-21.3v33.89h21.3c12.22 0 18.15-7 18.15-16.85-.01-10.23-5.9-17.04-18.15-17.04zM410.39 0v20.74H356.5v24.82h48.89v20.18H356.5v27h53.89v20.96h-77.22V0h77.22zM451.08 71.3v42.4h-23.52V0h46.85c23.89 0 39.82 12.78 39.82 36.11 0 18.15-10 29.63-25.93 33.52l30 44.08h-26.67L463.48 71.3h-12.4zm0-19.44h21.85c11.85 0 18-6.3 18-15.74 0-9.63-6.11-15.93-18-15.93h-21.85v31.66zM521.75 0h97v20.74h-36.64v93h-23.88v-93h-36.48V0zM727.93 0v113.7h-23.7V65.93h-51.48v47.77H629V0h23.7v45.19h51.48V0h23.7zM861.27 0l19.63 76.48L899.6 0h23.33L893.3 113.7h-21.66l-20-75-20 75H810L780.34 0h23.89l18.52 76.48 20-76.48h18.52zM1031.21 0v113.7h-23.7V65.93H956v47.77h-23.7V0H956v45.19h51.48V0h23.7zM1074.94 113.7h-23.7V0h23.7v113.7zM1085 0h97v20.74h-36.67v93h-23.89v-93H1085V0zM1269.51 0v20.74h-53.89v24.82h48.89v20.18h-48.89v27h53.89v20.96h-77.22V0h77.22zM401.38 213.79v39.44h-23.52v-113.7h46.29c24.08 0 40 13 40 37.22 0 24.08-15.92 37-40 37h-22.77zm21.3-54.07h-21.3v33.88h21.3c12.22 0 18.15-7 18.15-16.85-.01-10.19-5.94-17.04-18.16-17.04zM525.28 255.08c-31.67 0-53.7-24.81-53.7-58.7 0-34.07 22-58.7 53.7-58.7s53.89 24.63 53.89 58.7c0 33.89-22.22 58.7-53.89 58.7zm0-96.3c-18 0-29.63 15.37-29.63 37.59S507.32 234 525.28 234c18.15 0 30-15.37 30-37.59s-11.85-37.62-30-37.62zM617.51 253.23H593.8v-113.7h23.7v113.7zM742.77 139.53h97v20.74h-36.63v93h-23.89v-93h-36.48v-20.74zM927.29 139.53v20.74H873.4v24.82h48.89v20.19H873.4v27h53.89v20.93h-77.23V139.53h77.22zM968 210.82v42.41h-23.55v-113.7h46.85c23.89 0 39.82 12.78 39.82 36.11 0 18.15-10 29.63-25.93 33.52l30 44.08h-26.67l-28.15-42.41H968zm0-19.44h21.85c11.85 0 18-6.3 18-15.74 0-9.63-6.11-15.93-18-15.93H968v31.67zM1062.58 220.82c3.15 10 11.48 14.63 22.59 14.63 11.48 0 19.07-5.19 19.07-14.26 0-6.85-4.07-10.56-13.89-12.78l-20.35-4.62c-16.3-3.7-28.89-12.41-28.89-31.11 0-20.55 17-35 40.92-35 25.93 0 40.93 13.7 44.63 33h-23.52c-2.59-7.59-9.07-13.52-20.93-13.52-10.74 0-18 5.19-18 13.33 0 6.48 4.26 10.37 12.78 12.41l20.74 4.82c18.52 4.26 29.82 14.81 29.82 32 0 22-18.15 35.37-42.22 35.37-25.37 0-43.33-12.59-47.22-34.26h24.44zM0 0v102.86l80.16 41.25L0 143.77v42.08l80.16 41.25L0 226.76v28.32h202.14C181.71 58.48 0 0 0 0z"/></svg>