<?xml version="1.0" standalone="no"?>
<!DOCTYPE svg PUBLIC "-//W3C//DTD SVG 20010904//EN"
 "http://www.w3.org/TR/2001/REC-SVG-20010904/DTD/svg10.dtd">
<svg version="1.0" xmlns="http://www.w3.org/2000/svg"
 width="998.000000pt" height="998.000000pt" viewBox="0 0 998.000000 998.000000"
 preserveAspectRatio="xMidYMid meet">
<metadata>
Created by potrace 1.11, written by Peter Selinger 2001-2013
</metadata>
<g transform="translate(0.000000,998.000000) scale(0.100000,-0.100000)"
fill="#000000" stroke="none">
<path d="M1043 7950 l0 -2009 66 -34 c36 -19 152 -78 256 -132 105 -54 258
-132 340 -175 83 -43 231 -119 330 -170 99 -51 252 -130 340 -175 88 -45 246
-126 350 -180 105 -54 262 -135 350 -180 88 -45 243 -125 345 -178 102 -52
253 -130 335 -172 83 -43 202 -104 265 -136 63 -32 121 -63 129 -68 13 -9
-418 -8 -2749 2 l-355 2 0 -824 0 -824 110 -57 c61 -31 209 -107 330 -169 664
-343 787 -406 1050 -541 121 -62 274 -141 340 -175 66 -35 217 -112 335 -173
118 -60 307 -158 420 -216 113 -58 278 -142 367 -188 90 -46 163 -85 163 -88
0 -3 -24 -4 -52 -3 -29 1 -606 4 -1283 7 -676 3 -1354 5 -1505 6 l-275 1 -1
-550 -1 -551 3948 0 c3119 0 3948 3 3951 12 3 7 1 31 -3 53 -4 22 -10 67 -13
100 -4 33 -8 76 -11 95 -2 19 -7 58 -10 85 -4 28 -8 57 -10 65 -2 8 -7 38 -10
65 -3 28 -7 61 -10 75 -2 14 -7 43 -10 65 -9 65 -39 246 -51 310 -36 193 -57
297 -74 375 -12 52 -24 106 -26 120 -3 14 -19 81 -35 150 -17 69 -32 132 -34
140 -9 43 -51 200 -81 310 -330 1185 -852 2312 -1539 3318 -55 80 -280 396
-301 421 -7 9 -63 81 -124 160 -61 79 -117 150 -123 157 -7 7 -16 19 -22 26
-18 24 -253 302 -285 338 -17 19 -59 66 -93 105 -34 38 -89 99 -122 135 -93
102 -590 596 -694 690 -52 47 -99 90 -105 95 -194 180 -618 528 -916 751 -256
192 -683 483 -935 637 -629 386 -1215 690 -1800 934 -140 58 -440 173 -454
173 -4 0 -8 -904 -8 -2010z"/>
</g>
</svg>
